<svg xmlns="http://www.w3.org/2000/svg" viewBox="0 0 164.91 67.39"><defs><style>.cls-1{fill:#2c2c2c;}</style></defs><title>logo</title><g id="Layer_2" data-name="Layer 2"><g id="Layer_2-2" data-name="Layer 2"><path class="cls-1" d="M96.55,40.65l4.31-6,14.92-20.57C119,9.63,122.24,5.17,125.52.74a2,2,0,0,1,1.37-.67c3.16-.06,6.32,0,9.47,0,1,0,1.22.31,1.25,1.22q.54,15,1.12,30.08c.1,2.72.19,5.43.34,8.15.05.86-.14,1.22-1.09,1.21-3.07-.06-6.15,0-9.23,0-.83,0-1.14-.28-1.13-1.1,0-1.68-.07-3.36-.09-5,0-.7-.27-1-1-1-4.24,0-8.48,0-12.71,0a1.83,1.83,0,0,0-1.25.68c-1.43,1.83-2.77,3.72-4.17,5.56-.24.33-.64.77-1,.77C103.93,40.67,100.42,40.65,96.55,40.65Zm30.78-27.24-.26-.09-8.23,12.06c2.83,0,5.33,0,7.84,0,.22,0,.61-.55.63-.85.07-1.28,0-2.56,0-3.83Z"/><path class="cls-1" d="M47.31,40.57c.49-1.51.92-2.91,1.39-4.29Q53.86,21.15,59,6c.58-1.7,1.17-3.4,1.71-5.12A1.07,1.07,0,0,1,61.94,0c5.84,0,11.67,0,17.51.09a11.29,11.29,0,0,1,3.4.63c4.41,1.5,6.27,5.16,5.22,10.18A21.94,21.94,0,0,1,81.62,22.6,16.31,16.31,0,0,1,71.37,27c-2.58.2-5.19.19-7.78.18a1.37,1.37,0,0,0-1.54,1.1c-1.22,3.76-2.52,7.5-3.74,11.26a1.36,1.36,0,0,1-1.53,1.12c-2.76-.06-5.52,0-8.28,0C48.16,40.65,47.81,40.61,47.31,40.57Zm18.17-22a47.25,47.25,0,0,0,4.77,0A6.89,6.89,0,0,0,76.62,12c.17-1.91-.62-3-2.54-3.21a34.39,34.39,0,0,0-4.54-.14,1.5,1.5,0,0,0-1,.86c-.89,2.44-1.7,4.9-2.53,7.36C65.81,17.4,65.66,17.93,65.48,18.53Z"/><path class="cls-1" d="M38.08,0c-.77,2.25-1.44,4.29-2.16,6.31C35,8.89,35,8.88,32.26,8.88c-2.92,0-5.84,0-8.76,0a1.25,1.25,0,0,0-1.43,1.05c-.57,1.86-1.24,3.69-1.94,5.74H31.6c-.35,1.14-.63,2.07-.94,3-.55,1.66-1.16,3.31-1.68,5a1.22,1.22,0,0,1-1.37,1c-3.12,0-6.24,0-9.36,0a1.35,1.35,0,0,0-1.55,1.07c-1.55,4.66-3.18,9.3-4.73,14a1.28,1.28,0,0,1-1.44,1c-3.11,0-6.23,0-9.5,0a11.55,11.55,0,0,1,.27-1.14L13.47,3.92a16.53,16.53,0,0,0,.68-2.17C14.41.37,15.13,0,16.55,0c6.64.09,13.28,0,19.92,0Z"/><path class="cls-1" d="M117.49,61.59a11.85,11.85,0,0,1-1.58,0c-1.75-.24-3.11,0-3.44,2.15,0,.27-.84.43-1.29.64,0-.38-.23-.8-.12-1.13,1-2.9,2-5.79,3-8.69a1.35,1.35,0,0,1,2.59,0c1,2.89,2.11,5.76,3.12,8.66.12.34,0,1.07-.21,1.15a1,1,0,0,1-1.39-.67C118,63,117.75,62.32,117.49,61.59Zm-2-5.77-.29,0c-.5,1.45-1,2.9-1.53,4.47H117Z"/><path class="cls-1" d="M87.28,56.08a11.36,11.36,0,0,1,0-1.18,2.16,2.16,0,0,1,2.62-2.24c.9.06.95.14.85,1.22-1.73.11-2,.42-2,1.82,0,.6.22.87.84.85.88,0,1.76,0,2.64,0s1.22.26,1.2,1.17c0,1.83,0,3.67,0,5.51,0,.54.12,1.18-.75,1.2s-.79-.6-.79-1.15c0-1.44,0-2.88,0-4.31,0-.85-.3-1.17-1.11-1.09a2.89,2.89,0,0,1-.72,0c-1-.12-1.37.22-1.31,1.26a41.12,41.12,0,0,1,0,4.3c0,.34-.47.66-.72,1-.25-.31-.7-.62-.71-.95-.08-1.51,0-3-.06-4.54a1.85,1.85,0,0,0-.39-1,6.3,6.3,0,0,0-1-.79Z"/><path class="cls-1" d="M65.48,60.18c0,1.24.06,2.31,0,3.37,0,.31-.52.58-.79.87-.25-.28-.69-.56-.7-.85q-.08-4.53,0-9.08c0-.3.36-.83.57-.83a16.83,16.83,0,0,1,3.69.08c1.77.32,2.5,1.54,2.34,3.45a3.24,3.24,0,0,1-3.06,3C66.9,60.23,66.3,60.18,65.48,60.18Zm.06-1.36c1.25.14,2.47.23,3-1a2.66,2.66,0,0,0-.09-2.21c-.64-1-1.82-.87-2.94-.7Z"/><path class="cls-1" d="M85.08,60.41c0,2.85-1.67,4.45-4.38,4.25a2.87,2.87,0,0,1-2.83-2.18,8.26,8.26,0,0,1,0-3.83c.49-1.85,2.35-2.66,4.43-2.28C84.07,56.69,85.08,58.17,85.08,60.41Zm-1.61,0c0-.22-.08-.57-.16-.92a1.93,1.93,0,0,0-2-1.79,2.06,2.06,0,0,0-2,1.83,6.79,6.79,0,0,0,.07,2.25,2,2,0,0,0,2.6,1.44C82.92,62.9,83.44,62,83.47,60.39Z"/><path class="cls-1" d="M100.91,60.87c-.14,1.59.44,2.38,1.84,2.46a15.47,15.47,0,0,0,2-.23,3.89,3.89,0,0,1,.94.14c-.14.34-.17.82-.41,1-1.72,1.19-4.93.38-5.75-1.47A5.14,5.14,0,0,1,99.72,58a3.39,3.39,0,0,1,6.36,2c0,.69-.41.86-1,.85Zm3.52-1.28c-.07-1.37-.68-2-1.77-2a1.73,1.73,0,0,0-1.72,2Z"/><path class="cls-1" d="M24.37,59.53c.11-2-.42-2.16-4-1.23-.46-.68-.24-1.16.43-1.53,2.76-1.53,5.21-.11,5.22,3,0,1.28,0,2.56,0,3.84,0,.82-.62,1.05-1.11.66s-.8-.18-1.22,0a2.53,2.53,0,0,1-3.84-1.48A2.31,2.31,0,0,1,21.69,60,25.13,25.13,0,0,1,24.37,59.53Zm0,1.41c-2-.15-3,.27-3,1.28s.64,1.22,1.45,1.15C24.06,63.26,24.58,62.44,24.34,60.94Z"/><path class="cls-1" d="M130.07,58c.24-.42.37-1,.73-1.21a4.24,4.24,0,0,1,4-.13c1.15.59,1.22,1.77,1.23,2.92s0,2.4,0,3.59c0,.39-.16,1-.41,1.1s-.79-.17-1.18-.28a10.58,10.58,0,0,1-2.19.61,2.31,2.31,0,0,1-2.48-2A2.37,2.37,0,0,1,131.51,60a6.74,6.74,0,0,1,1.4-.31c.46-.07.94-.07,1.71-.12-.26-.63-.33-1.35-.7-1.58a3,3,0,0,0-1.81-.24,8.12,8.12,0,0,0-1.65.58ZM134.39,61c-1.92-.21-3,.2-3,1.19s.56,1.26,1.39,1.23C134,63.32,134.58,62.46,134.39,61Z"/><path class="cls-1" d="M13.29,57.05A2.75,2.75,0,0,1,18,59.41c-.06,1.35.09,2.72,0,4.07a1.29,1.29,0,0,1-.77.9c-.69.18-.86-.34-.86-.94,0-1.28,0-2.56,0-3.83,0-1-.25-1.79-1.38-1.91a2.19,2.19,0,0,0-2,2c0,1.28,0,2.56-.05,3.83,0,.33-.48.62-.73.93-.28-.31-.77-.61-.78-.92-.08-1.88-.07-3.75,0-5.63,0-.42.16-1.09.43-1.2S12.67,56.87,13.29,57.05Z"/><path class="cls-1" d="M52.19,59.49c.08-1.45-.62-2.07-2-1.8-.42.08-.81.33-1.24.43a4,4,0,0,1-.85,0c0-.34,0-.81.16-1a4.13,4.13,0,0,1,4-.63,2.22,2.22,0,0,1,1.61,2.38c0,1.48,0,3,0,4.43,0,.36-.14.93-.36,1s-.74-.15-1.14-.26a12.09,12.09,0,0,1-2.39.57,2.15,2.15,0,0,1-2.21-1.8,2.22,2.22,0,0,1,1.52-2.76A25,25,0,0,1,52.19,59.49Zm0,1.45c-1.94-.16-2.94.29-3,1.28a1.2,1.2,0,0,0,1.47,1.16C51.87,63.23,52.4,62.41,52.14,60.94Z"/><path class="cls-1" d="M123.24,57a8.51,8.51,0,0,1,1.94-.65,2.35,2.35,0,0,1,2.73,2.22c.14,1.63.13,3.27.17,4.9,0,.62-.25,1.1-.9.91a1.28,1.28,0,0,1-.69-1c-.08-1.27,0-2.55,0-3.83,0-1-.3-1.76-1.39-1.89a2.26,2.26,0,0,0-2,1.95c0,1.24,0,2.48,0,3.72,0,.54,0,1.18-.78,1a1.35,1.35,0,0,1-.79-1c-.08-1.83-.07-3.67,0-5.51,0-.41.18-1,.48-1.18S122.72,56.85,123.24,57Z"/><path class="cls-1" d="M143.23,67.28c0-.17-.07-.22-.06-.25,1.33-2.29.27-4.35-.61-6.44-.51-1.24-.94-2.51-1.41-3.78,1-.44,1.59-.31,1.91.66a28.18,28.18,0,0,0,2,4.65c.28-.82.57-1.64.85-2.47a19.14,19.14,0,0,1,.9-2.47c.16-.31.73-.41,1.12-.6.09.35.34.77.24,1.06-1,3-2.14,6-3.22,9C144.6,67.52,144,67.46,143.23,67.28Z"/><path class="cls-1" d="M30.07,57.07A7.6,7.6,0,0,1,32,56.36a2.47,2.47,0,0,1,2.86,2.51,40.25,40.25,0,0,1,0,4.66c0,.31-.53.59-.81.89-.25-.32-.7-.63-.72-1-.09-1.27,0-2.55,0-3.83s-.53-2-1.45-1.94a2.32,2.32,0,0,0-2,2c0,1.24.05,2.48,0,3.71a1.28,1.28,0,0,1-.72.94c-.7.17-.83-.38-.83-1,0-1.95,0-3.91,0-5.86,0-.32.27-.88.48-.9S29.54,56.87,30.07,57.07Z"/><path class="cls-1" d="M1.51,58.43c1.19,0,2.19,0,3.18,0,.28,0,.53.4.8.61a9.34,9.34,0,0,1-.8.64c-.12.07-.31,0-.47,0-2.71,0-2.71,0-2.71,2.81a3.11,3.11,0,0,1,0,1.06,3.28,3.28,0,0,1-.72.83c-.24-.29-.68-.57-.7-.86-.07-1.48,0-3,0-4.44s.06-2.8,0-4.19C0,53.85.37,53.52,1.4,53.58s2.32,0,3.48.05c.29,0,.56.36.84.55-.28.25-.53.68-.84.72a16.14,16.14,0,0,1-2.51,0c-.58,0-.9.17-.87.82C1.53,56.59,1.51,57.42,1.51,58.43Z"/><path class="cls-1" d="M153.78,58a8.48,8.48,0,0,0-1.95-.37,1.45,1.45,0,0,0-1,.75c-.09.23.28.8.58,1,.56.38,1.23.57,1.83.9a2.17,2.17,0,0,1,.19,3.88,3.74,3.74,0,0,1-3.76,0c-.35-.26-.47-.82-.69-1.24l.31-.28c.35.13.7.28,1.06.38a3,3,0,0,0,1.38.25,1.68,1.68,0,0,0,1.08-.87c.09-.28-.32-.86-.65-1.1s-1.2-.38-1.6-.77a4.41,4.41,0,0,1-1.22-1.87,1.61,1.61,0,0,1,1.15-2,7.85,7.85,0,0,1,3,0c.29,0,.48.74.72,1.15Z"/><path class="cls-1" d="M164.2,58a6.27,6.27,0,0,0-1.71-.38c-.43,0-.84.42-1.26.65a4.07,4.07,0,0,0,.74,1.19,15.19,15.19,0,0,0,1.72.83,2.17,2.17,0,0,1,.36,3.69,3.69,3.69,0,0,1-4.05.16c-.31-.26-.4-.8-.6-1.21l.29-.26c.35.12.69.28,1.05.37a3.82,3.82,0,0,0,1.5.23,1.41,1.41,0,0,0,1-.81,1.49,1.49,0,0,0-.61-1.12,8.92,8.92,0,0,0-1.63-.74,1.81,1.81,0,0,1-1.24-2,3,3,0,0,1,1.26-2,5.75,5.75,0,0,1,2.86,0c.3.05.5.75.74,1.15Z"/><path class="cls-1" d="M42.32,62.46a1.14,1.14,0,0,1-.43,1.72A3.3,3.3,0,0,1,37,62.8a5.57,5.57,0,0,1,.18-4.86,3.33,3.33,0,0,1,4.38-1.33c.86.43,1,.84.7,1.9-1.22-.45-2.53-1.64-3.68,0a4.21,4.21,0,0,0,.06,4C39.87,64,41.12,63,42.32,62.46Z"/><path class="cls-1" d="M95.7,58.59c0-1.56,0-3.12,0-4.68,0-.57.08-1,.83-1s.83.44.83,1c0,3.16,0,6.32,0,9.47,0,.36-.51.71-.78,1.06-.28-.35-.78-.68-.8-1C95.65,61.79,95.7,60.18,95.7,58.59Z"/><path class="cls-1" d="M139.82,53.06v3.41c0,2.28,0,4.55,0,6.83,0,.38-.38,1-.69,1.07-.83.17-.79-.55-.79-1.11,0-3.08,0-6.15,0-9.23C138.27,53,138.68,52.67,139.82,53.06Z"/><path class="cls-1" d="M73.78,56.91a18.2,18.2,0,0,1,2.67-.43c.15,0,.32.78.49,1.25-2.42.18-2.89.7-2.89,2.93a25,25,0,0,1,0,2.87c0,.32-.52.59-.8.89-.27-.3-.76-.6-.77-.92-.08-2-.07-3.91,0-5.86,0-.36.27-.94.51-1S73.69,56.88,73.78,56.91Z"/><path class="cls-1" d="M56.07,58.49c0-1.47,0-3,0-4.43,0-.54-.1-1.16.77-1.18s.85.64.85,1.23v9.1c0,.56.06,1.18-.78,1.21s-.84-.66-.84-1.26C56.06,61.61,56.07,60.05,56.07,58.49Z"/><path class="cls-1" d="M9.14,60.58a27.05,27.05,0,0,1,0,3c0,.31-.56.57-.85.85-.26-.28-.72-.56-.73-.84q-.1-3.12,0-6.23a1.09,1.09,0,0,1,.78-.73,1.11,1.11,0,0,1,.8.73C9.19,58.42,9.14,59.5,9.14,60.58Z"/><path class="cls-1" d="M44.13,60.48a29.79,29.79,0,0,1,0-3c0-.33.51-.62.79-.93.29.29.81.58.82.88q.12,3.06,0,6.12c0,.29-.54.57-.84.86-.27-.31-.73-.6-.77-.94C44.07,62.49,44.14,61.48,44.13,60.48Z"/><path class="cls-1" d="M157.75,60.46a29.63,29.63,0,0,1,0,3c0,.34-.45.65-.69,1-.28-.3-.79-.6-.8-.91q-.12-3,0-6.09c0-.29.55-.57.85-.85.22.3.62.58.65.9C157.8,58.46,157.75,59.46,157.75,60.46Z"/><path class="cls-1" d="M92.67,53.15c.45.63.91,1,.87,1.28s-.6.86-.85.82a1.44,1.44,0,0,1-.93-.87C91.69,54.16,92.2,53.76,92.67,53.15Z"/><path class="cls-1" d="M8.32,53.14c.45.63.93,1,.86,1.26a1.45,1.45,0,0,1-.95.86c-.23,0-.76-.52-.8-.85S7.85,53.77,8.32,53.14Z"/><path class="cls-1" d="M157.07,55.82c-.5-.66-.95-1-.92-1.31a1.15,1.15,0,0,1,.78-.84,1.19,1.19,0,0,1,.9.73C157.89,54.7,157.48,55.1,157.07,55.82Z"/><path class="cls-1" d="M44.87,53.11c.5.64,1,1,.93,1.24s-.53.65-.83,1c-.29-.28-.75-.53-.82-.86S44.48,53.8,44.87,53.11Z"/></g></g></svg>