<svg width="24" height="24" viewBox="0 0 24 24" fill="none" xmlns="http://www.w3.org/2000/svg">
<rect width="24" height="24" rx="5" fill="#066FD0"/>
<path d="M8.72301 11.8806C8.34147 11.4813 7.70846 11.4669 7.30916 11.8484C6.90985 12.23 6.89545 12.863 7.27699 13.2623L8.72301 11.8806ZM11.276 16L10.553 16.6908L11.3606 17.536L12.0705 16.6073L11.276 16ZM18.1858 8.6073C18.5212 8.16853 18.4374 7.54093 17.9986 7.20553C17.5598 6.87013 16.9322 6.95392 16.5968 7.3927L18.1858 8.6073ZM7.27699 13.2623L10.553 16.6908L11.999 15.3092L8.72301 11.8806L7.27699 13.2623ZM12.0705 16.6073L18.1858 8.6073L16.5968 7.3927L10.4816 15.3927L12.0705 16.6073Z" fill="white"/>
</svg>
