<svg width="21" height="24" viewBox="0 0 21 24" fill="none" xmlns="http://www.w3.org/2000/svg">
<path d="M3.31406 23.625C2.78906 23.625 2.32969 23.4281 1.93594 23.0344C1.54219 22.6406 1.34531 22.1812 1.34531 21.6562V2.95312H0V0.984375H6.16875V0H14.8313V0.984375H21V2.95312H19.6547V21.6562C19.6547 22.1812 19.4578 22.6406 19.0641 23.0344C18.6703 23.4281 18.2109 23.625 17.6859 23.625H3.31406ZM17.6859 2.95312H3.31406V21.6562H17.6859V2.95312ZM6.79219 18.8344H8.76094V5.74219H6.79219V18.8344ZM12.2391 18.8344H14.2078V5.74219H12.2391V18.8344ZM3.31406 2.95312V21.6562V2.95312Z" fill="#A09DA6"/>
</svg>
