<svg width="41" height="33" viewBox="0 0 41 33" fill="none" xmlns="http://www.w3.org/2000/svg">
<path d="M5.39206 0.863999C6.81073 0.863999 7.87206 1.18933 8.57606 1.84C9.28006 2.48 9.63206 3.456 9.63206 4.768V9.616C9.63206 9.72267 9.59473 9.81333 9.52006 9.888C9.45606 9.96267 9.3654 10 9.24806 10H7.96806C7.8614 10 7.77073 9.96267 7.69606 9.888C7.6214 9.81333 7.58406 9.72267 7.58406 9.616V4.848C7.58406 3.33333 6.8214 2.576 5.29606 2.576H4.20806C4.1014 3.056 4.02673 3.504 3.98406 3.92C3.9414 4.336 3.9254 4.80533 3.93606 5.328L4.01606 9.616C4.01606 9.72267 3.97873 9.81333 3.90406 9.888C3.84006 9.96267 3.7494 10 3.63206 10L0.816063 9.984C0.709396 9.984 0.618729 9.94667 0.544063 9.872C0.469396 9.79733 0.432063 9.70667 0.432063 9.6V8.72C0.432063 8.60267 0.469396 8.512 0.544063 8.448C0.618729 8.37333 0.709396 8.336 0.816063 8.336L2.08006 8.352V5.376C2.0694 4.832 2.08006 4.352 2.11206 3.936C2.15473 3.50933 2.23473 3.056 2.35206 2.576H1.44006C1.3334 2.576 1.24273 2.53867 1.16806 2.464C1.0934 2.38933 1.05606 2.29867 1.05606 2.192V1.248C1.05606 1.13067 1.0934 1.04 1.16806 0.976C1.24273 0.901333 1.3334 0.863999 1.44006 0.863999H5.39206ZM15.5768 10.176C15.4701 10.208 15.3741 10.1867 15.2888 10.112C15.2035 10.0373 15.1608 9.94133 15.1608 9.824V8.656C15.1608 8.56 15.1928 8.46933 15.2568 8.384C15.3315 8.29867 15.4275 8.23467 15.5448 8.192L16.1048 7.968C16.7235 7.72267 17.1981 7.376 17.5288 6.928C17.8701 6.48 18.0408 5.82933 18.0408 4.976C18.0408 4.38933 17.9715 3.93067 17.8328 3.6C17.7048 3.25867 17.4808 3.01333 17.1608 2.864C16.8515 2.71467 16.4195 2.64 15.8648 2.64H12.1208C12.0141 2.64 11.9235 2.60267 11.8488 2.528C11.7741 2.45333 11.7368 2.36267 11.7368 2.256V1.232C11.7368 1.12533 11.7741 1.04 11.8488 0.976C11.9235 0.901333 12.0141 0.863999 12.1208 0.863999H16.2328C17.6515 0.863999 18.6595 1.18933 19.2568 1.84C19.8541 2.49067 20.1528 3.53067 20.1528 4.96C20.1528 6.31467 19.7848 7.40267 19.0488 8.224C18.3128 9.04533 17.3741 9.62667 16.2328 9.968L15.5768 10.176ZM12.1208 13.056C12.0141 13.056 11.9235 13.0187 11.8488 12.944C11.7741 12.88 11.7368 12.7893 11.7368 12.672V4.592C11.7368 4.47467 11.7741 4.384 11.8488 4.32C11.9235 4.24533 12.0141 4.208 12.1208 4.208H13.3688C13.4861 4.208 13.5768 4.24533 13.6408 4.32C13.7155 4.384 13.7528 4.47467 13.7528 4.592V12.672C13.7528 12.7893 13.7155 12.88 13.6408 12.944C13.5768 13.0187 13.4861 13.056 13.3688 13.056H12.1208ZM23.7446 3.568C23.7659 4.21867 23.9366 4.592 24.2566 4.688L24.7846 4.832C24.8699 4.864 24.9339 4.928 24.9766 5.024C25.0299 5.10933 25.0566 5.21067 25.0566 5.328L25.0726 5.92C25.0726 6.05867 25.0032 6.16533 24.8646 6.24C24.7366 6.31467 24.5872 6.34133 24.4166 6.32L23.7766 6.192C23.2432 6.10667 22.8166 5.824 22.4966 5.344C22.1766 4.85333 22.0166 4.21867 22.0166 3.44V1.248C22.0272 1.13067 22.0646 1.04 22.1286 0.976C22.2032 0.901333 22.2939 0.863999 22.4006 0.863999H25.4886C26.7792 0.863999 27.7499 1.216 28.4006 1.92C29.0512 2.624 29.3979 3.616 29.4406 4.896C29.4512 5.00267 29.4566 5.17867 29.4566 5.424C29.4566 5.68 29.4512 5.86133 29.4406 5.968C29.3979 7.248 29.0512 8.24 28.4006 8.944C27.7499 9.648 26.7792 10 25.4886 10H22.5926C22.4859 10 22.3952 9.96267 22.3206 9.888C22.2459 9.81333 22.2086 9.72267 22.2086 9.616V8.608C22.2086 8.49067 22.2459 8.4 22.3206 8.336C22.3952 8.26133 22.4859 8.224 22.5926 8.224H25.4086C26.0592 8.224 26.5712 8.02667 26.9446 7.632C27.3179 7.22667 27.5206 6.66133 27.5526 5.936C27.5632 5.82933 27.5686 5.65867 27.5686 5.424C27.5686 5.2 27.5632 5.03467 27.5526 4.928C27.5312 4.20267 27.3286 3.64267 26.9446 3.248C26.5712 2.84267 26.0592 2.64 25.4086 2.64H23.7446V3.568ZM37.6669 10C37.5603 10 37.4696 9.96267 37.3949 9.888C37.3203 9.81333 37.2829 9.72267 37.2829 9.616V4.848C37.2829 3.33333 36.5256 2.576 35.0109 2.576H31.6989C31.5923 2.576 31.5016 2.53867 31.4269 2.464C31.3523 2.38933 31.3149 2.29867 31.3149 2.192V1.248C31.3149 1.13067 31.3523 1.04 31.4269 0.976C31.5016 0.901333 31.5923 0.863999 31.6989 0.863999H35.0909C37.9283 0.863999 39.3469 2.18667 39.3469 4.832V9.616C39.3469 9.72267 39.3096 9.81333 39.2349 9.888C39.1709 9.96267 39.0803 10 38.9629 10H37.6669ZM31.6989 10C31.5923 10 31.5016 9.96267 31.4269 9.888C31.3523 9.81333 31.3149 9.72267 31.3149 9.616V4.592C31.3149 4.47467 31.3523 4.384 31.4269 4.32C31.5016 4.24533 31.5923 4.208 31.6989 4.208H32.9789C33.0963 4.208 33.1923 4.24533 33.2669 4.32C33.3416 4.39467 33.3789 4.48533 33.3789 4.592V9.616C33.3789 9.72267 33.3416 9.81333 33.2669 9.888C33.1923 9.96267 33.0963 10 32.9789 10H31.6989ZM6.831 29C6.72433 29 6.63367 28.9627 6.559 28.888C6.48433 28.8133 6.447 28.7227 6.447 28.616V23.848C6.447 22.3333 5.68967 21.576 4.175 21.576H0.863C0.756333 21.576 0.665667 21.5387 0.591 21.464C0.516333 21.3893 0.479 21.2987 0.479 21.192V20.248C0.479 20.1307 0.516333 20.04 0.591 19.976C0.665667 19.9013 0.756333 19.864 0.863 19.864H4.255C7.09233 19.864 8.511 21.1867 8.511 23.832V28.616C8.511 28.7227 8.47367 28.8133 8.399 28.888C8.335 28.9627 8.24433 29 8.127 29H6.831ZM0.863 29C0.756333 29 0.665667 28.9627 0.591 28.888C0.516333 28.8133 0.479 28.7227 0.479 28.616V23.592C0.479 23.4747 0.516333 23.384 0.591 23.32C0.665667 23.2453 0.756333 23.208 0.863 23.208H2.143C2.26033 23.208 2.35633 23.2453 2.431 23.32C2.50567 23.3947 2.543 23.4853 2.543 23.592V28.616C2.543 28.7227 2.50567 28.8133 2.431 28.888C2.35633 28.9627 2.26033 29 2.143 29H0.863ZM20.028 19.864C20.1453 19.864 20.236 19.9013 20.3 19.976C20.3747 20.04 20.412 20.1307 20.412 20.248V24.568C20.412 25.4853 20.2093 26.2907 19.804 26.984C19.4093 27.6773 18.86 28.2107 18.156 28.584C17.4627 28.9467 16.6733 29.1227 15.788 29.112H14.428C13.66 29.112 12.9773 28.952 12.38 28.632C11.7827 28.3013 11.3187 27.848 10.988 27.272C10.668 26.696 10.508 26.0507 10.508 25.336V20.248C10.508 20.1307 10.5453 20.04 10.62 19.976C10.6947 19.9013 10.7853 19.864 10.892 19.864H12.044C12.1613 19.864 12.252 19.9013 12.316 19.976C12.3907 20.04 12.428 20.1307 12.428 20.248L12.476 24.44C13.2333 24.376 13.7667 24.136 14.076 23.72C14.3853 23.304 14.54 22.7333 14.54 22.008V20.264C14.54 20.1467 14.5773 20.0507 14.652 19.976C14.7267 19.9013 14.8173 19.864 14.924 19.864H16.076C16.1827 19.864 16.2733 19.9013 16.348 19.976C16.4227 20.0507 16.46 20.1467 16.46 20.264V22.056C16.46 23.176 16.14 24.0773 15.5 24.76C14.86 25.4427 13.932 25.832 12.716 25.928C12.9187 26.3973 13.2173 26.76 13.612 27.016C14.0173 27.272 14.4813 27.4 15.004 27.4H15.452C16.06 27.4107 16.5933 27.2933 17.052 27.048C17.5213 26.8027 17.8787 26.456 18.124 26.008C18.3693 25.56 18.492 25.048 18.492 24.472V20.248C18.492 20.1307 18.5293 20.04 18.604 19.976C18.6787 19.9013 18.7693 19.864 18.876 19.864H20.028ZM26.2721 29.176C26.1655 29.208 26.0695 29.1867 25.9841 29.112C25.8988 29.0373 25.8561 28.9413 25.8561 28.824V27.656C25.8561 27.56 25.8881 27.4693 25.9521 27.384C26.0268 27.2987 26.1228 27.2347 26.2401 27.192L26.8001 26.968C27.4188 26.7227 27.8935 26.376 28.2241 25.928C28.5655 25.48 28.7361 24.8293 28.7361 23.976C28.7361 23.3893 28.6668 22.9307 28.5281 22.6C28.4001 22.2587 28.1761 22.0133 27.8561 21.864C27.5468 21.7147 27.1148 21.64 26.5601 21.64H22.8161C22.7095 21.64 22.6188 21.6027 22.5441 21.528C22.4695 21.4533 22.4321 21.3627 22.4321 21.256V20.232C22.4321 20.1253 22.4695 20.04 22.5441 19.976C22.6188 19.9013 22.7095 19.864 22.8161 19.864H26.9281C28.3468 19.864 29.3548 20.1893 29.9521 20.84C30.5495 21.4907 30.8481 22.5307 30.8481 23.96C30.8481 25.3147 30.4801 26.4027 29.7441 27.224C29.0081 28.0453 28.0695 28.6267 26.9281 28.968L26.2721 29.176ZM22.8161 32.056C22.7095 32.056 22.6188 32.0187 22.5441 31.944C22.4695 31.88 22.4321 31.7893 22.4321 31.672V23.592C22.4321 23.4747 22.4695 23.384 22.5441 23.32C22.6188 23.2453 22.7095 23.208 22.8161 23.208H24.0641C24.1815 23.208 24.2721 23.2453 24.3361 23.32C24.4108 23.384 24.4481 23.4747 24.4481 23.592V31.672C24.4481 31.7893 24.4108 31.88 24.3361 31.944C24.2721 32.0187 24.1815 32.056 24.0641 32.056H22.8161ZM32.8079 29C32.7012 29 32.6105 28.9627 32.5359 28.888C32.4612 28.8133 32.4239 28.7227 32.4239 28.616V27.672C32.4239 27.5547 32.4612 27.464 32.5359 27.4C32.6105 27.3253 32.7012 27.288 32.8079 27.288H37.1119V23.864C37.1119 22.3387 36.3545 21.576 34.8399 21.576H32.9679C32.8612 21.576 32.7705 21.5387 32.6959 21.464C32.6212 21.3893 32.5839 21.2987 32.5839 21.192V20.248C32.5839 20.1307 32.6212 20.04 32.6959 19.976C32.7705 19.9013 32.8612 19.864 32.9679 19.864H34.9199C36.3492 19.864 37.4265 20.1893 38.1519 20.84C38.8772 21.48 39.2399 22.4773 39.2399 23.832V27.288H39.8159C39.9332 27.288 40.0239 27.3253 40.0879 27.4C40.1625 27.464 40.1999 27.5547 40.1999 27.672V28.616C40.1999 28.7227 40.1625 28.8133 40.0879 28.888C40.0239 28.9627 39.9332 29 39.8159 29H32.8079Z" fill="white"/>
</svg>
