<svg width="195" height="113" viewBox="0 0 195 113" fill="none" xmlns="http://www.w3.org/2000/svg">
<path d="M13.6562 96.4688C13.6562 96.5677 13.651 96.6536 13.6406 96.7266C13.6302 96.7995 13.612 96.8594 13.5859 96.9062C13.5599 96.9479 13.5286 96.9792 13.4922 97C13.4609 97.0208 13.4271 97.0312 13.3906 97.0312H9.6875V100.469H13.1875C13.224 100.469 13.2578 100.479 13.2891 100.5C13.3255 100.516 13.3568 100.544 13.3828 100.586C13.4089 100.628 13.4271 100.685 13.4375 100.758C13.4479 100.826 13.4531 100.914 13.4531 101.023C13.4531 101.122 13.4479 101.208 13.4375 101.281C13.4271 101.349 13.4089 101.406 13.3828 101.453C13.3568 101.495 13.3255 101.529 13.2891 101.555C13.2578 101.576 13.224 101.586 13.1875 101.586H9.6875V105.797C9.6875 105.833 9.67708 105.87 9.65625 105.906C9.63542 105.938 9.59896 105.964 9.54688 105.984C9.49479 106 9.42708 106.013 9.34375 106.023C9.26042 106.039 9.15104 106.047 9.01562 106.047C8.89062 106.047 8.78385 106.039 8.69531 106.023C8.60677 106.013 8.53646 106 8.48438 105.984C8.43229 105.964 8.39583 105.938 8.375 105.906C8.35417 105.87 8.34375 105.833 8.34375 105.797V96.4375C8.34375 96.2344 8.39583 96.0938 8.5 96.0156C8.60938 95.9323 8.72396 95.8906 8.84375 95.8906H13.3906C13.4271 95.8906 13.4609 95.901 13.4922 95.9219C13.5286 95.9427 13.5599 95.9766 13.5859 96.0234C13.612 96.0703 13.6302 96.1328 13.6406 96.2109C13.651 96.2839 13.6562 96.3698 13.6562 96.4688ZM16.8438 105.805C16.8438 105.846 16.8333 105.883 16.8125 105.914C16.7917 105.94 16.7578 105.964 16.7109 105.984C16.6641 106.005 16.599 106.021 16.5156 106.031C16.4323 106.042 16.3255 106.047 16.1953 106.047C16.0703 106.047 15.9661 106.042 15.8828 106.031C15.7995 106.021 15.7318 106.005 15.6797 105.984C15.6328 105.964 15.599 105.94 15.5781 105.914C15.5625 105.883 15.5547 105.846 15.5547 105.805V98.7734C15.5547 98.737 15.5625 98.7031 15.5781 98.6719C15.599 98.6406 15.6328 98.6146 15.6797 98.5938C15.7318 98.5729 15.7995 98.5573 15.8828 98.5469C15.9661 98.5365 16.0703 98.5312 16.1953 98.5312C16.3255 98.5312 16.4323 98.5365 16.5156 98.5469C16.599 98.5573 16.6641 98.5729 16.7109 98.5938C16.7578 98.6146 16.7917 98.6406 16.8125 98.6719C16.8333 98.7031 16.8438 98.737 16.8438 98.7734V105.805ZM16.9922 96.3984C16.9922 96.7005 16.9349 96.9062 16.8203 97.0156C16.7057 97.125 16.4948 97.1797 16.1875 97.1797C15.8854 97.1797 15.6771 97.1276 15.5625 97.0234C15.4531 96.9141 15.3984 96.7109 15.3984 96.4141C15.3984 96.112 15.4557 95.9062 15.5703 95.7969C15.6849 95.6875 15.8958 95.6328 16.2031 95.6328C16.5052 95.6328 16.7109 95.6875 16.8203 95.7969C16.9349 95.901 16.9922 96.1016 16.9922 96.3984ZM25.2812 105.805C25.2812 105.846 25.2708 105.883 25.25 105.914C25.2292 105.94 25.1953 105.964 25.1484 105.984C25.1016 106.005 25.0365 106.021 24.9531 106.031C24.8698 106.042 24.7656 106.047 24.6406 106.047C24.5104 106.047 24.4036 106.042 24.3203 106.031C24.237 106.021 24.1719 106.005 24.125 105.984C24.0781 105.964 24.0443 105.94 24.0234 105.914C24.0026 105.883 23.9922 105.846 23.9922 105.805V101.688C23.9922 101.286 23.9609 100.964 23.8984 100.719C23.8359 100.474 23.7448 100.263 23.625 100.086C23.5052 99.9089 23.349 99.7734 23.1562 99.6797C22.9688 99.5859 22.75 99.5391 22.5 99.5391C22.1771 99.5391 21.8542 99.6536 21.5312 99.8828C21.2083 100.112 20.8698 100.448 20.5156 100.891V105.805C20.5156 105.846 20.5052 105.883 20.4844 105.914C20.4635 105.94 20.4297 105.964 20.3828 105.984C20.3359 106.005 20.2708 106.021 20.1875 106.031C20.1042 106.042 19.9974 106.047 19.8672 106.047C19.7422 106.047 19.638 106.042 19.5547 106.031C19.4714 106.021 19.4036 106.005 19.3516 105.984C19.3047 105.964 19.2708 105.94 19.25 105.914C19.2344 105.883 19.2266 105.846 19.2266 105.805V98.7734C19.2266 98.7318 19.2344 98.6979 19.25 98.6719C19.2656 98.6406 19.2969 98.6146 19.3438 98.5938C19.3906 98.5677 19.4505 98.5521 19.5234 98.5469C19.5964 98.5365 19.6927 98.5312 19.8125 98.5312C19.9271 98.5312 20.0208 98.5365 20.0938 98.5469C20.1719 98.5521 20.2318 98.5677 20.2734 98.5938C20.3151 98.6146 20.3438 98.6406 20.3594 98.6719C20.3802 98.6979 20.3906 98.7318 20.3906 98.7734V99.7031C20.7865 99.2604 21.1797 98.9375 21.5703 98.7344C21.9661 98.526 22.3646 98.4219 22.7656 98.4219C23.2344 98.4219 23.6276 98.5026 23.9453 98.6641C24.2682 98.8203 24.5286 99.0312 24.7266 99.2969C24.9245 99.5625 25.0651 99.875 25.1484 100.234C25.237 100.589 25.2812 101.016 25.2812 101.516V105.805ZM32.9297 105.812C32.9297 105.875 32.9089 105.922 32.8672 105.953C32.8255 105.984 32.7682 106.008 32.6953 106.023C32.6224 106.039 32.5156 106.047 32.375 106.047C32.2396 106.047 32.1302 106.039 32.0469 106.023C31.9688 106.008 31.9115 105.984 31.875 105.953C31.8385 105.922 31.8203 105.875 31.8203 105.812V105.109C31.513 105.438 31.1693 105.693 30.7891 105.875C30.4141 106.057 30.0156 106.148 29.5938 106.148C29.224 106.148 28.888 106.099 28.5859 106C28.2891 105.906 28.0339 105.768 27.8203 105.586C27.612 105.404 27.4479 105.18 27.3281 104.914C27.2135 104.648 27.1562 104.346 27.1562 104.008C27.1562 103.612 27.237 103.268 27.3984 102.977C27.5599 102.685 27.7917 102.443 28.0938 102.25C28.3958 102.057 28.7656 101.914 29.2031 101.82C29.6406 101.721 30.1328 101.672 30.6797 101.672H31.6484V101.125C31.6484 100.854 31.6198 100.615 31.5625 100.406C31.5052 100.198 31.4115 100.026 31.2812 99.8906C31.1562 99.75 30.9922 99.6458 30.7891 99.5781C30.5859 99.5052 30.3359 99.4688 30.0391 99.4688C29.7214 99.4688 29.4349 99.5078 29.1797 99.5859C28.9297 99.6589 28.7083 99.7422 28.5156 99.8359C28.3281 99.9245 28.1693 100.008 28.0391 100.086C27.9141 100.159 27.8203 100.195 27.7578 100.195C27.7161 100.195 27.6797 100.185 27.6484 100.164C27.6172 100.143 27.5885 100.112 27.5625 100.07C27.5417 100.029 27.526 99.9766 27.5156 99.9141C27.5052 99.8464 27.5 99.7734 27.5 99.6953C27.5 99.5651 27.5078 99.4635 27.5234 99.3906C27.5443 99.3125 27.5885 99.2396 27.6562 99.1719C27.7292 99.1042 27.8516 99.026 28.0234 98.9375C28.1953 98.8438 28.3932 98.7604 28.6172 98.6875C28.8411 98.6094 29.0859 98.5469 29.3516 98.5C29.6172 98.4479 29.8854 98.4219 30.1562 98.4219C30.6615 98.4219 31.0911 98.4792 31.4453 98.5938C31.7995 98.7083 32.0859 98.8776 32.3047 99.1016C32.5234 99.3203 32.6823 99.5938 32.7812 99.9219C32.8802 100.25 32.9297 100.633 32.9297 101.07V105.812ZM31.6484 102.602H30.5469C30.1927 102.602 29.8854 102.633 29.625 102.695C29.3646 102.753 29.1484 102.841 28.9766 102.961C28.8047 103.076 28.6771 103.216 28.5938 103.383C28.5156 103.544 28.4766 103.732 28.4766 103.945C28.4766 104.31 28.5911 104.602 28.8203 104.82C29.0547 105.034 29.3802 105.141 29.7969 105.141C30.1354 105.141 30.4479 105.055 30.7344 104.883C31.026 104.711 31.3307 104.448 31.6484 104.094V102.602ZM41.3594 105.805C41.3594 105.846 41.349 105.883 41.3281 105.914C41.3073 105.94 41.2734 105.964 41.2266 105.984C41.1797 106.005 41.1146 106.021 41.0312 106.031C40.9479 106.042 40.8438 106.047 40.7188 106.047C40.5885 106.047 40.4818 106.042 40.3984 106.031C40.3151 106.021 40.25 106.005 40.2031 105.984C40.1562 105.964 40.1224 105.94 40.1016 105.914C40.0807 105.883 40.0703 105.846 40.0703 105.805V101.688C40.0703 101.286 40.0391 100.964 39.9766 100.719C39.9141 100.474 39.8229 100.263 39.7031 100.086C39.5833 99.9089 39.4271 99.7734 39.2344 99.6797C39.0469 99.5859 38.8281 99.5391 38.5781 99.5391C38.2552 99.5391 37.9323 99.6536 37.6094 99.8828C37.2865 100.112 36.9479 100.448 36.5938 100.891V105.805C36.5938 105.846 36.5833 105.883 36.5625 105.914C36.5417 105.94 36.5078 105.964 36.4609 105.984C36.4141 106.005 36.349 106.021 36.2656 106.031C36.1823 106.042 36.0755 106.047 35.9453 106.047C35.8203 106.047 35.7161 106.042 35.6328 106.031C35.5495 106.021 35.4818 106.005 35.4297 105.984C35.3828 105.964 35.349 105.94 35.3281 105.914C35.3125 105.883 35.3047 105.846 35.3047 105.805V98.7734C35.3047 98.7318 35.3125 98.6979 35.3281 98.6719C35.3438 98.6406 35.375 98.6146 35.4219 98.5938C35.4688 98.5677 35.5286 98.5521 35.6016 98.5469C35.6745 98.5365 35.7708 98.5312 35.8906 98.5312C36.0052 98.5312 36.099 98.5365 36.1719 98.5469C36.25 98.5521 36.3099 98.5677 36.3516 98.5938C36.3932 98.6146 36.4219 98.6406 36.4375 98.6719C36.4583 98.6979 36.4688 98.7318 36.4688 98.7734V99.7031C36.8646 99.2604 37.2578 98.9375 37.6484 98.7344C38.0443 98.526 38.4427 98.4219 38.8438 98.4219C39.3125 98.4219 39.7057 98.5026 40.0234 98.6641C40.3464 98.8203 40.6068 99.0312 40.8047 99.2969C41.0026 99.5625 41.1432 99.875 41.2266 100.234C41.3151 100.589 41.3594 101.016 41.3594 101.516V105.805ZM48.7656 104.734C48.7656 104.823 48.763 104.901 48.7578 104.969C48.7526 105.031 48.7422 105.086 48.7266 105.133C48.7161 105.174 48.7005 105.214 48.6797 105.25C48.6641 105.281 48.6224 105.331 48.5547 105.398C48.4922 105.461 48.3828 105.542 48.2266 105.641C48.0703 105.734 47.8932 105.82 47.6953 105.898C47.5026 105.971 47.2917 106.031 47.0625 106.078C46.8333 106.125 46.5964 106.148 46.3516 106.148C45.8464 106.148 45.3984 106.065 45.0078 105.898C44.6172 105.732 44.2891 105.49 44.0234 105.172C43.763 104.849 43.5625 104.456 43.4219 103.992C43.2865 103.523 43.2188 102.984 43.2188 102.375C43.2188 101.682 43.3021 101.089 43.4688 100.594C43.6406 100.094 43.8724 99.6849 44.1641 99.3672C44.4609 99.0495 44.8073 98.8151 45.2031 98.6641C45.6042 98.5078 46.0365 98.4297 46.5 98.4297C46.724 98.4297 46.9401 98.4505 47.1484 98.4922C47.362 98.5339 47.5573 98.5885 47.7344 98.6562C47.9115 98.724 48.0677 98.8021 48.2031 98.8906C48.3438 98.9792 48.4453 99.0547 48.5078 99.1172C48.5703 99.1797 48.612 99.2292 48.6328 99.2656C48.6589 99.3021 48.6797 99.3464 48.6953 99.3984C48.7109 99.4453 48.7214 99.5 48.7266 99.5625C48.7318 99.625 48.7344 99.7031 48.7344 99.7969C48.7344 100 48.7109 100.143 48.6641 100.227C48.6172 100.305 48.5599 100.344 48.4922 100.344C48.4141 100.344 48.3229 100.302 48.2188 100.219C48.1198 100.13 47.9922 100.034 47.8359 99.9297C47.6797 99.8255 47.4896 99.7318 47.2656 99.6484C47.0469 99.5599 46.7865 99.5156 46.4844 99.5156C45.8646 99.5156 45.388 99.7552 45.0547 100.234C44.7266 100.708 44.5625 101.398 44.5625 102.305C44.5625 102.758 44.6042 103.156 44.6875 103.5C44.776 103.839 44.9036 104.122 45.0703 104.352C45.237 104.581 45.4401 104.753 45.6797 104.867C45.9245 104.977 46.2031 105.031 46.5156 105.031C46.8125 105.031 47.0729 104.984 47.2969 104.891C47.5208 104.797 47.7135 104.695 47.875 104.586C48.0417 104.471 48.1797 104.37 48.2891 104.281C48.4036 104.188 48.4922 104.141 48.5547 104.141C48.5911 104.141 48.6224 104.151 48.6484 104.172C48.6745 104.193 48.6953 104.229 48.7109 104.281C48.7318 104.328 48.7448 104.391 48.75 104.469C48.7604 104.542 48.7656 104.63 48.7656 104.734ZM56.4766 101.984C56.4766 102.188 56.4245 102.333 56.3203 102.422C56.2214 102.505 56.1068 102.547 55.9766 102.547H51.3672C51.3672 102.938 51.4062 103.289 51.4844 103.602C51.5625 103.914 51.6927 104.182 51.875 104.406C52.0573 104.63 52.2943 104.802 52.5859 104.922C52.8776 105.042 53.2344 105.102 53.6562 105.102C53.9896 105.102 54.2865 105.076 54.5469 105.023C54.8073 104.966 55.0312 104.904 55.2188 104.836C55.4115 104.768 55.5677 104.708 55.6875 104.656C55.8125 104.599 55.9062 104.57 55.9688 104.57C56.0052 104.57 56.0365 104.581 56.0625 104.602C56.0938 104.617 56.1172 104.643 56.1328 104.68C56.1484 104.716 56.1589 104.768 56.1641 104.836C56.1745 104.898 56.1797 104.977 56.1797 105.07C56.1797 105.138 56.1771 105.198 56.1719 105.25C56.1667 105.297 56.1589 105.341 56.1484 105.383C56.1432 105.419 56.1302 105.453 56.1094 105.484C56.0938 105.516 56.0703 105.547 56.0391 105.578C56.013 105.604 55.9297 105.651 55.7891 105.719C55.6484 105.781 55.4661 105.844 55.2422 105.906C55.0182 105.969 54.7578 106.023 54.4609 106.07C54.1693 106.122 53.8568 106.148 53.5234 106.148C52.9453 106.148 52.4375 106.068 52 105.906C51.5677 105.745 51.2031 105.505 50.9062 105.188C50.6094 104.87 50.3854 104.471 50.2344 103.992C50.0833 103.513 50.0078 102.956 50.0078 102.32C50.0078 101.716 50.0859 101.174 50.2422 100.695C50.3984 100.211 50.6224 99.8021 50.9141 99.4688C51.2109 99.1302 51.5677 98.8724 51.9844 98.6953C52.401 98.513 52.8672 98.4219 53.3828 98.4219C53.9349 98.4219 54.4036 98.5104 54.7891 98.6875C55.1797 98.8646 55.5 99.1042 55.75 99.4062C56 99.7031 56.1823 100.055 56.2969 100.461C56.4167 100.862 56.4766 101.292 56.4766 101.75V101.984ZM55.1797 101.602C55.1953 100.924 55.0443 100.393 54.7266 100.008C54.4141 99.6224 53.9479 99.4297 53.3281 99.4297C53.0104 99.4297 52.7318 99.4896 52.4922 99.6094C52.2526 99.7292 52.0521 99.888 51.8906 100.086C51.7292 100.284 51.6042 100.516 51.5156 100.781C51.4271 101.042 51.3776 101.315 51.3672 101.602H55.1797Z" fill="#A09DA6"/>
<path d="M74.5547 98.8516C74.5547 99.3568 74.4714 99.8125 74.3047 100.219C74.138 100.625 73.8984 100.971 73.5859 101.258C73.2786 101.544 72.8984 101.766 72.4453 101.922C71.9974 102.078 71.4609 102.156 70.8359 102.156H69.6875V105.797C69.6875 105.839 69.6745 105.875 69.6484 105.906C69.6276 105.938 69.5911 105.964 69.5391 105.984C69.4922 106 69.4245 106.013 69.3359 106.023C69.2526 106.039 69.1458 106.047 69.0156 106.047C68.8854 106.047 68.776 106.039 68.6875 106.023C68.6042 106.013 68.5365 106 68.4844 105.984C68.4323 105.964 68.3958 105.938 68.375 105.906C68.3542 105.875 68.3438 105.839 68.3438 105.797V96.4688C68.3438 96.2604 68.3984 96.112 68.5078 96.0234C68.6172 95.9349 68.7396 95.8906 68.875 95.8906H71.0391C71.2578 95.8906 71.4661 95.901 71.6641 95.9219C71.8672 95.9375 72.1042 95.9766 72.375 96.0391C72.651 96.0964 72.9297 96.2083 73.2109 96.375C73.4974 96.5365 73.7396 96.737 73.9375 96.9766C74.1354 97.2161 74.2865 97.4948 74.3906 97.8125C74.5 98.125 74.5547 98.4714 74.5547 98.8516ZM73.1406 98.9609C73.1406 98.5495 73.0625 98.2057 72.9062 97.9297C72.7552 97.6536 72.5651 97.4479 72.3359 97.3125C72.112 97.1771 71.8776 97.0911 71.6328 97.0547C71.3932 97.0182 71.1589 97 70.9297 97H69.6875V101.055H70.8984C71.3047 101.055 71.6406 101.003 71.9062 100.898C72.1771 100.794 72.4036 100.651 72.5859 100.469C72.7682 100.281 72.9062 100.06 73 99.8047C73.0938 99.5443 73.1406 99.263 73.1406 98.9609ZM80.5703 99.2344C80.5703 99.349 80.5677 99.4453 80.5625 99.5234C80.5573 99.6016 80.5469 99.6641 80.5312 99.7109C80.5156 99.7526 80.4948 99.7865 80.4688 99.8125C80.4479 99.8333 80.4167 99.8438 80.375 99.8438C80.3333 99.8438 80.2812 99.8333 80.2188 99.8125C80.1615 99.7865 80.0938 99.763 80.0156 99.7422C79.9427 99.7161 79.8594 99.6927 79.7656 99.6719C79.6719 99.651 79.5703 99.6406 79.4609 99.6406C79.3307 99.6406 79.2031 99.6667 79.0781 99.7188C78.9531 99.7708 78.8203 99.8568 78.6797 99.9766C78.5443 100.096 78.401 100.255 78.25 100.453C78.099 100.651 77.9323 100.893 77.75 101.18V105.805C77.75 105.846 77.7396 105.883 77.7188 105.914C77.6979 105.94 77.6641 105.964 77.6172 105.984C77.5703 106.005 77.5052 106.021 77.4219 106.031C77.3385 106.042 77.2318 106.047 77.1016 106.047C76.9766 106.047 76.8724 106.042 76.7891 106.031C76.7057 106.021 76.638 106.005 76.5859 105.984C76.5391 105.964 76.5052 105.94 76.4844 105.914C76.4688 105.883 76.4609 105.846 76.4609 105.805V98.7734C76.4609 98.7318 76.4688 98.6979 76.4844 98.6719C76.5 98.6406 76.5312 98.6146 76.5781 98.5938C76.625 98.5677 76.6849 98.5521 76.7578 98.5469C76.8307 98.5365 76.9271 98.5312 77.0469 98.5312C77.1615 98.5312 77.2552 98.5365 77.3281 98.5469C77.4062 98.5521 77.4661 98.5677 77.5078 98.5938C77.5495 98.6146 77.5781 98.6406 77.5938 98.6719C77.6146 98.6979 77.625 98.7318 77.625 98.7734V99.7969C77.8177 99.5156 77.9974 99.2865 78.1641 99.1094C78.3359 98.9323 78.4974 98.7943 78.6484 98.6953C78.7995 98.5911 78.9479 98.5208 79.0938 98.4844C79.2448 98.4427 79.3958 98.4219 79.5469 98.4219C79.6146 98.4219 79.6901 98.4271 79.7734 98.4375C79.862 98.4427 79.9531 98.4557 80.0469 98.4766C80.1406 98.4974 80.224 98.5208 80.2969 98.5469C80.375 98.5729 80.4297 98.599 80.4609 98.625C80.4922 98.651 80.513 98.6771 80.5234 98.7031C80.5339 98.724 80.5417 98.7526 80.5469 98.7891C80.5573 98.8255 80.5625 98.8802 80.5625 98.9531C80.5677 99.0208 80.5703 99.1146 80.5703 99.2344ZM88.3125 102.211C88.3125 102.784 88.237 103.312 88.0859 103.797C87.9349 104.276 87.7083 104.69 87.4062 105.039C87.1094 105.388 86.7344 105.661 86.2812 105.859C85.8333 106.052 85.3125 106.148 84.7188 106.148C84.1406 106.148 83.6354 106.062 83.2031 105.891C82.776 105.719 82.4193 105.469 82.1328 105.141C81.8464 104.812 81.6328 104.414 81.4922 103.945C81.3516 103.477 81.2812 102.945 81.2812 102.352C81.2812 101.779 81.3542 101.253 81.5 100.773C81.651 100.289 81.875 99.8724 82.1719 99.5234C82.474 99.1745 82.849 98.9036 83.2969 98.7109C83.7448 98.5182 84.2682 98.4219 84.8672 98.4219C85.4453 98.4219 85.9479 98.5078 86.375 98.6797C86.8073 98.8516 87.1667 99.1016 87.4531 99.4297C87.7396 99.7578 87.9531 100.156 88.0938 100.625C88.2396 101.094 88.3125 101.622 88.3125 102.211ZM86.9531 102.297C86.9531 101.917 86.9167 101.557 86.8438 101.219C86.776 100.88 86.6615 100.583 86.5 100.328C86.3385 100.073 86.1198 99.8724 85.8438 99.7266C85.5677 99.5755 85.224 99.5 84.8125 99.5C84.4323 99.5 84.1042 99.5677 83.8281 99.7031C83.5573 99.8385 83.3333 100.031 83.1562 100.281C82.9792 100.526 82.8464 100.818 82.7578 101.156C82.6745 101.495 82.6328 101.865 82.6328 102.266C82.6328 102.651 82.6667 103.013 82.7344 103.352C82.8073 103.69 82.9245 103.987 83.0859 104.242C83.2526 104.492 83.474 104.693 83.75 104.844C84.026 104.99 84.3698 105.062 84.7812 105.062C85.1562 105.062 85.4818 104.995 85.7578 104.859C86.0339 104.724 86.2604 104.534 86.4375 104.289C86.6146 104.044 86.7448 103.753 86.8281 103.414C86.9115 103.076 86.9531 102.703 86.9531 102.297ZM96.4375 96.4062C96.4375 96.5521 96.4245 96.6745 96.3984 96.7734C96.3776 96.8724 96.3385 96.9531 96.2812 97.0156C96.224 97.0729 96.1432 97.1146 96.0391 97.1406C95.9401 97.1667 95.8125 97.1797 95.6562 97.1797C95.5052 97.1797 95.3776 97.1667 95.2734 97.1406C95.1745 97.1146 95.0938 97.0729 95.0312 97.0156C94.974 96.9531 94.9323 96.8724 94.9062 96.7734C94.8802 96.6745 94.8672 96.5521 94.8672 96.4062C94.8672 96.2604 94.8802 96.1406 94.9062 96.0469C94.9323 95.9479 94.974 95.8672 95.0312 95.8047C95.0938 95.737 95.1745 95.6927 95.2734 95.6719C95.3776 95.6458 95.5052 95.6328 95.6562 95.6328C95.8125 95.6328 95.9401 95.6458 96.0391 95.6719C96.1432 95.6927 96.224 95.737 96.2812 95.8047C96.3385 95.8672 96.3776 95.9479 96.3984 96.0469C96.4245 96.1406 96.4375 96.2604 96.4375 96.4062ZM96.2969 105.805C96.2969 105.846 96.2865 105.883 96.2656 105.914C96.2448 105.94 96.2083 105.964 96.1562 105.984C96.1094 106.005 96.0443 106.021 95.9609 106.031C95.8776 106.042 95.7734 106.047 95.6484 106.047C95.5234 106.047 95.4193 106.042 95.3359 106.031C95.2526 106.021 95.1849 106.005 95.1328 105.984C95.0859 105.964 95.0521 105.94 95.0312 105.914C95.0104 105.883 95 105.846 95 105.805V99.6406H91.8438V105.805C91.8438 105.846 91.8333 105.883 91.8125 105.914C91.7917 105.94 91.7552 105.964 91.7031 105.984C91.6562 106.005 91.5911 106.021 91.5078 106.031C91.4245 106.042 91.3203 106.047 91.1953 106.047C91.0703 106.047 90.9661 106.042 90.8828 106.031C90.7995 106.021 90.7318 106.005 90.6797 105.984C90.6328 105.964 90.599 105.94 90.5781 105.914C90.5573 105.883 90.5469 105.846 90.5469 105.805V99.6406H89.5547C89.4714 99.6406 89.4089 99.599 89.3672 99.5156C89.3255 99.4323 89.3047 99.2969 89.3047 99.1094C89.3047 99.0104 89.3099 98.9271 89.3203 98.8594C89.3307 98.7917 89.3464 98.737 89.3672 98.6953C89.388 98.6484 89.4141 98.6172 89.4453 98.6016C89.4766 98.5807 89.513 98.5703 89.5547 98.5703H90.5469V97.8125C90.5469 97.3281 90.5938 96.9141 90.6875 96.5703C90.7812 96.2214 90.9193 95.9349 91.1016 95.7109C91.2891 95.487 91.5182 95.3229 91.7891 95.2188C92.0651 95.1094 92.3802 95.0547 92.7344 95.0547C92.849 95.0547 92.9635 95.0599 93.0781 95.0703C93.1927 95.0807 93.2969 95.0964 93.3906 95.1172C93.4844 95.138 93.5651 95.1615 93.6328 95.1875C93.7057 95.2083 93.7552 95.2318 93.7812 95.2578C93.8073 95.2839 93.8281 95.3125 93.8438 95.3438C93.8594 95.3698 93.8724 95.4036 93.8828 95.4453C93.8932 95.487 93.901 95.5391 93.9062 95.6016C93.9115 95.6641 93.9141 95.7396 93.9141 95.8281C93.9141 95.9948 93.901 96.1146 93.875 96.1875C93.849 96.2604 93.8047 96.2969 93.7422 96.2969C93.7005 96.2969 93.6562 96.2891 93.6094 96.2734C93.5677 96.2526 93.513 96.2318 93.4453 96.2109C93.3776 96.1901 93.2943 96.1719 93.1953 96.1562C93.1016 96.1354 92.9818 96.125 92.8359 96.125C92.4766 96.125 92.2214 96.2578 92.0703 96.5234C91.9193 96.7891 91.8438 97.2135 91.8438 97.7969V98.5703H95.8984C96.0339 98.5703 96.1328 98.6068 96.1953 98.6797C96.263 98.7474 96.2969 98.8438 96.2969 98.9688V105.805ZM99.9688 105.805C99.9688 105.846 99.9583 105.883 99.9375 105.914C99.9167 105.94 99.8828 105.964 99.8359 105.984C99.7891 106.005 99.724 106.021 99.6406 106.031C99.5573 106.042 99.4505 106.047 99.3203 106.047C99.1953 106.047 99.0911 106.042 99.0078 106.031C98.9245 106.021 98.8568 106.005 98.8047 105.984C98.7578 105.964 98.724 105.94 98.7031 105.914C98.6875 105.883 98.6797 105.846 98.6797 105.805V95.3672C98.6797 95.3255 98.6875 95.2891 98.7031 95.2578C98.724 95.2266 98.7578 95.2005 98.8047 95.1797C98.8568 95.1589 98.9245 95.1432 99.0078 95.1328C99.0911 95.1224 99.1953 95.1172 99.3203 95.1172C99.4505 95.1172 99.5573 95.1224 99.6406 95.1328C99.724 95.1432 99.7891 95.1589 99.8359 95.1797C99.8828 95.2005 99.9167 95.2266 99.9375 95.2578C99.9583 95.2891 99.9688 95.3255 99.9688 95.3672V105.805ZM108.352 101.984C108.352 102.188 108.299 102.333 108.195 102.422C108.096 102.505 107.982 102.547 107.852 102.547H103.242C103.242 102.938 103.281 103.289 103.359 103.602C103.438 103.914 103.568 104.182 103.75 104.406C103.932 104.63 104.169 104.802 104.461 104.922C104.753 105.042 105.109 105.102 105.531 105.102C105.865 105.102 106.161 105.076 106.422 105.023C106.682 104.966 106.906 104.904 107.094 104.836C107.286 104.768 107.443 104.708 107.562 104.656C107.688 104.599 107.781 104.57 107.844 104.57C107.88 104.57 107.911 104.581 107.938 104.602C107.969 104.617 107.992 104.643 108.008 104.68C108.023 104.716 108.034 104.768 108.039 104.836C108.049 104.898 108.055 104.977 108.055 105.07C108.055 105.138 108.052 105.198 108.047 105.25C108.042 105.297 108.034 105.341 108.023 105.383C108.018 105.419 108.005 105.453 107.984 105.484C107.969 105.516 107.945 105.547 107.914 105.578C107.888 105.604 107.805 105.651 107.664 105.719C107.523 105.781 107.341 105.844 107.117 105.906C106.893 105.969 106.633 106.023 106.336 106.07C106.044 106.122 105.732 106.148 105.398 106.148C104.82 106.148 104.312 106.068 103.875 105.906C103.443 105.745 103.078 105.505 102.781 105.188C102.484 104.87 102.26 104.471 102.109 103.992C101.958 103.513 101.883 102.956 101.883 102.32C101.883 101.716 101.961 101.174 102.117 100.695C102.273 100.211 102.497 99.8021 102.789 99.4688C103.086 99.1302 103.443 98.8724 103.859 98.6953C104.276 98.513 104.742 98.4219 105.258 98.4219C105.81 98.4219 106.279 98.5104 106.664 98.6875C107.055 98.8646 107.375 99.1042 107.625 99.4062C107.875 99.7031 108.057 100.055 108.172 100.461C108.292 100.862 108.352 101.292 108.352 101.75V101.984ZM107.055 101.602C107.07 100.924 106.919 100.393 106.602 100.008C106.289 99.6224 105.823 99.4297 105.203 99.4297C104.885 99.4297 104.607 99.4896 104.367 99.6094C104.128 99.7292 103.927 99.888 103.766 100.086C103.604 100.284 103.479 100.516 103.391 100.781C103.302 101.042 103.253 101.315 103.242 101.602H107.055Z" fill="#A09DA6"/>
<path d="M126.914 105.523C126.956 105.638 126.977 105.732 126.977 105.805C126.982 105.872 126.964 105.924 126.922 105.961C126.88 105.997 126.81 106.021 126.711 106.031C126.617 106.042 126.49 106.047 126.328 106.047C126.167 106.047 126.036 106.042 125.938 106.031C125.844 106.026 125.771 106.016 125.719 106C125.672 105.979 125.635 105.953 125.609 105.922C125.589 105.891 125.568 105.852 125.547 105.805L124.68 103.344H120.477L119.648 105.773C119.633 105.82 119.612 105.862 119.586 105.898C119.56 105.93 119.521 105.958 119.469 105.984C119.422 106.005 119.352 106.021 119.258 106.031C119.169 106.042 119.052 106.047 118.906 106.047C118.755 106.047 118.63 106.039 118.531 106.023C118.438 106.013 118.37 105.99 118.328 105.953C118.292 105.917 118.273 105.865 118.273 105.797C118.279 105.724 118.302 105.63 118.344 105.516L121.734 96.125C121.755 96.0677 121.781 96.0208 121.812 95.9844C121.849 95.9479 121.898 95.9193 121.961 95.8984C122.029 95.8776 122.112 95.8646 122.211 95.8594C122.315 95.849 122.445 95.8438 122.602 95.8438C122.768 95.8438 122.906 95.849 123.016 95.8594C123.125 95.8646 123.214 95.8776 123.281 95.8984C123.349 95.9193 123.401 95.9505 123.438 95.9922C123.474 96.0286 123.503 96.0755 123.523 96.1328L126.914 105.523ZM122.562 97.2344H122.555L120.812 102.273H124.328L122.562 97.2344ZM134.516 105.805C134.516 105.846 134.505 105.883 134.484 105.914C134.464 105.94 134.43 105.964 134.383 105.984C134.336 106.005 134.271 106.021 134.188 106.031C134.104 106.042 134 106.047 133.875 106.047C133.745 106.047 133.638 106.042 133.555 106.031C133.471 106.021 133.406 106.005 133.359 105.984C133.312 105.964 133.279 105.94 133.258 105.914C133.237 105.883 133.227 105.846 133.227 105.805V101.688C133.227 101.286 133.195 100.964 133.133 100.719C133.07 100.474 132.979 100.263 132.859 100.086C132.74 99.9089 132.583 99.7734 132.391 99.6797C132.203 99.5859 131.984 99.5391 131.734 99.5391C131.411 99.5391 131.089 99.6536 130.766 99.8828C130.443 100.112 130.104 100.448 129.75 100.891V105.805C129.75 105.846 129.74 105.883 129.719 105.914C129.698 105.94 129.664 105.964 129.617 105.984C129.57 106.005 129.505 106.021 129.422 106.031C129.339 106.042 129.232 106.047 129.102 106.047C128.977 106.047 128.872 106.042 128.789 106.031C128.706 106.021 128.638 106.005 128.586 105.984C128.539 105.964 128.505 105.94 128.484 105.914C128.469 105.883 128.461 105.846 128.461 105.805V98.7734C128.461 98.7318 128.469 98.6979 128.484 98.6719C128.5 98.6406 128.531 98.6146 128.578 98.5938C128.625 98.5677 128.685 98.5521 128.758 98.5469C128.831 98.5365 128.927 98.5312 129.047 98.5312C129.161 98.5312 129.255 98.5365 129.328 98.5469C129.406 98.5521 129.466 98.5677 129.508 98.5938C129.549 98.6146 129.578 98.6406 129.594 98.6719C129.615 98.6979 129.625 98.7318 129.625 98.7734V99.7031C130.021 99.2604 130.414 98.9375 130.805 98.7344C131.201 98.526 131.599 98.4219 132 98.4219C132.469 98.4219 132.862 98.5026 133.18 98.6641C133.503 98.8203 133.763 99.0312 133.961 99.2969C134.159 99.5625 134.299 99.875 134.383 100.234C134.471 100.589 134.516 101.016 134.516 101.516V105.805ZM142.164 105.812C142.164 105.875 142.143 105.922 142.102 105.953C142.06 105.984 142.003 106.008 141.93 106.023C141.857 106.039 141.75 106.047 141.609 106.047C141.474 106.047 141.365 106.039 141.281 106.023C141.203 106.008 141.146 105.984 141.109 105.953C141.073 105.922 141.055 105.875 141.055 105.812V105.109C140.747 105.438 140.404 105.693 140.023 105.875C139.648 106.057 139.25 106.148 138.828 106.148C138.458 106.148 138.122 106.099 137.82 106C137.523 105.906 137.268 105.768 137.055 105.586C136.846 105.404 136.682 105.18 136.562 104.914C136.448 104.648 136.391 104.346 136.391 104.008C136.391 103.612 136.471 103.268 136.633 102.977C136.794 102.685 137.026 102.443 137.328 102.25C137.63 102.057 138 101.914 138.438 101.82C138.875 101.721 139.367 101.672 139.914 101.672H140.883V101.125C140.883 100.854 140.854 100.615 140.797 100.406C140.74 100.198 140.646 100.026 140.516 99.8906C140.391 99.75 140.227 99.6458 140.023 99.5781C139.82 99.5052 139.57 99.4688 139.273 99.4688C138.956 99.4688 138.669 99.5078 138.414 99.5859C138.164 99.6589 137.943 99.7422 137.75 99.8359C137.562 99.9245 137.404 100.008 137.273 100.086C137.148 100.159 137.055 100.195 136.992 100.195C136.951 100.195 136.914 100.185 136.883 100.164C136.852 100.143 136.823 100.112 136.797 100.07C136.776 100.029 136.76 99.9766 136.75 99.9141C136.74 99.8464 136.734 99.7734 136.734 99.6953C136.734 99.5651 136.742 99.4635 136.758 99.3906C136.779 99.3125 136.823 99.2396 136.891 99.1719C136.964 99.1042 137.086 99.026 137.258 98.9375C137.43 98.8438 137.628 98.7604 137.852 98.6875C138.076 98.6094 138.32 98.5469 138.586 98.5C138.852 98.4479 139.12 98.4219 139.391 98.4219C139.896 98.4219 140.326 98.4792 140.68 98.5938C141.034 98.7083 141.32 98.8776 141.539 99.1016C141.758 99.3203 141.917 99.5938 142.016 99.9219C142.115 100.25 142.164 100.633 142.164 101.07V105.812ZM140.883 102.602H139.781C139.427 102.602 139.12 102.633 138.859 102.695C138.599 102.753 138.383 102.841 138.211 102.961C138.039 103.076 137.911 103.216 137.828 103.383C137.75 103.544 137.711 103.732 137.711 103.945C137.711 104.31 137.826 104.602 138.055 104.82C138.289 105.034 138.615 105.141 139.031 105.141C139.37 105.141 139.682 105.055 139.969 104.883C140.26 104.711 140.565 104.448 140.883 104.094V102.602ZM145.828 105.805C145.828 105.846 145.818 105.883 145.797 105.914C145.776 105.94 145.742 105.964 145.695 105.984C145.648 106.005 145.583 106.021 145.5 106.031C145.417 106.042 145.31 106.047 145.18 106.047C145.055 106.047 144.951 106.042 144.867 106.031C144.784 106.021 144.716 106.005 144.664 105.984C144.617 105.964 144.583 105.94 144.562 105.914C144.547 105.883 144.539 105.846 144.539 105.805V95.3672C144.539 95.3255 144.547 95.2891 144.562 95.2578C144.583 95.2266 144.617 95.2005 144.664 95.1797C144.716 95.1589 144.784 95.1432 144.867 95.1328C144.951 95.1224 145.055 95.1172 145.18 95.1172C145.31 95.1172 145.417 95.1224 145.5 95.1328C145.583 95.1432 145.648 95.1589 145.695 95.1797C145.742 95.2005 145.776 95.2266 145.797 95.2578C145.818 95.2891 145.828 95.3255 145.828 95.3672V105.805ZM151.414 106L150.477 108.586C150.445 108.669 150.365 108.732 150.234 108.773C150.109 108.82 149.917 108.844 149.656 108.844C149.521 108.844 149.411 108.836 149.328 108.82C149.245 108.81 149.18 108.789 149.133 108.758C149.091 108.727 149.068 108.685 149.062 108.633C149.057 108.581 149.07 108.518 149.102 108.445L150.07 106C150.023 105.979 149.979 105.945 149.938 105.898C149.896 105.852 149.867 105.802 149.852 105.75L147.344 99.0312C147.302 98.9219 147.281 98.8359 147.281 98.7734C147.281 98.7109 147.302 98.6615 147.344 98.625C147.385 98.5885 147.453 98.5651 147.547 98.5547C147.641 98.5391 147.766 98.5312 147.922 98.5312C148.078 98.5312 148.201 98.5365 148.289 98.5469C148.378 98.5521 148.448 98.5651 148.5 98.5859C148.552 98.6068 148.589 98.638 148.609 98.6797C148.635 98.7161 148.661 98.7682 148.688 98.8359L150.695 104.477H150.719L152.656 98.8047C152.688 98.7057 152.724 98.6432 152.766 98.6172C152.812 98.5859 152.88 98.5651 152.969 98.5547C153.057 98.5391 153.185 98.5312 153.352 98.5312C153.497 98.5312 153.617 98.5391 153.711 98.5547C153.805 98.5651 153.872 98.5885 153.914 98.625C153.961 98.6615 153.984 98.7109 153.984 98.7734C153.984 98.8359 153.969 98.9141 153.938 99.0078L151.414 106ZM159.719 103.891C159.719 104.25 159.651 104.57 159.516 104.852C159.385 105.133 159.198 105.37 158.953 105.562C158.708 105.755 158.417 105.901 158.078 106C157.74 106.099 157.367 106.148 156.961 106.148C156.711 106.148 156.471 106.128 156.242 106.086C156.018 106.049 155.815 106.003 155.633 105.945C155.456 105.883 155.305 105.82 155.18 105.758C155.055 105.69 154.964 105.63 154.906 105.578C154.849 105.526 154.807 105.453 154.781 105.359C154.755 105.266 154.742 105.138 154.742 104.977C154.742 104.878 154.747 104.794 154.758 104.727C154.768 104.659 154.781 104.604 154.797 104.562C154.812 104.521 154.833 104.492 154.859 104.477C154.891 104.456 154.924 104.445 154.961 104.445C155.018 104.445 155.102 104.482 155.211 104.555C155.326 104.622 155.464 104.698 155.625 104.781C155.792 104.865 155.987 104.943 156.211 105.016C156.435 105.083 156.693 105.117 156.984 105.117C157.203 105.117 157.401 105.094 157.578 105.047C157.755 105 157.909 104.932 158.039 104.844C158.169 104.75 158.268 104.633 158.336 104.492C158.409 104.352 158.445 104.185 158.445 103.992C158.445 103.794 158.393 103.628 158.289 103.492C158.19 103.357 158.057 103.237 157.891 103.133C157.724 103.029 157.536 102.938 157.328 102.859C157.12 102.776 156.904 102.69 156.68 102.602C156.461 102.513 156.245 102.414 156.031 102.305C155.823 102.19 155.635 102.052 155.469 101.891C155.302 101.729 155.167 101.536 155.062 101.312C154.964 101.089 154.914 100.82 154.914 100.508C154.914 100.232 154.966 99.9688 155.07 99.7188C155.18 99.4635 155.341 99.2422 155.555 99.0547C155.768 98.862 156.034 98.7083 156.352 98.5938C156.674 98.4792 157.049 98.4219 157.477 98.4219C157.664 98.4219 157.852 98.4375 158.039 98.4688C158.227 98.5 158.396 98.5391 158.547 98.5859C158.698 98.6328 158.826 98.6849 158.93 98.7422C159.039 98.7943 159.12 98.8411 159.172 98.8828C159.229 98.9245 159.266 98.9609 159.281 98.9922C159.302 99.0234 159.315 99.0599 159.32 99.1016C159.331 99.138 159.339 99.1849 159.344 99.2422C159.354 99.2995 159.359 99.3698 159.359 99.4531C159.359 99.5417 159.354 99.6198 159.344 99.6875C159.339 99.75 159.326 99.8021 159.305 99.8438C159.289 99.8854 159.268 99.9167 159.242 99.9375C159.216 99.9531 159.188 99.9609 159.156 99.9609C159.109 99.9609 159.042 99.9323 158.953 99.875C158.865 99.8177 158.75 99.7578 158.609 99.6953C158.469 99.6276 158.302 99.5651 158.109 99.5078C157.922 99.4505 157.706 99.4219 157.461 99.4219C157.242 99.4219 157.049 99.4479 156.883 99.5C156.716 99.5469 156.578 99.6172 156.469 99.7109C156.365 99.7995 156.284 99.9062 156.227 100.031C156.174 100.156 156.148 100.292 156.148 100.438C156.148 100.641 156.201 100.812 156.305 100.953C156.409 101.089 156.544 101.208 156.711 101.312C156.878 101.417 157.068 101.51 157.281 101.594C157.495 101.677 157.711 101.763 157.93 101.852C158.154 101.94 158.372 102.039 158.586 102.148C158.805 102.258 158.997 102.391 159.164 102.547C159.331 102.703 159.464 102.891 159.562 103.109C159.667 103.328 159.719 103.589 159.719 103.891ZM162.859 105.805C162.859 105.846 162.849 105.883 162.828 105.914C162.807 105.94 162.773 105.964 162.727 105.984C162.68 106.005 162.615 106.021 162.531 106.031C162.448 106.042 162.341 106.047 162.211 106.047C162.086 106.047 161.982 106.042 161.898 106.031C161.815 106.021 161.747 106.005 161.695 105.984C161.648 105.964 161.615 105.94 161.594 105.914C161.578 105.883 161.57 105.846 161.57 105.805V98.7734C161.57 98.737 161.578 98.7031 161.594 98.6719C161.615 98.6406 161.648 98.6146 161.695 98.5938C161.747 98.5729 161.815 98.5573 161.898 98.5469C161.982 98.5365 162.086 98.5312 162.211 98.5312C162.341 98.5312 162.448 98.5365 162.531 98.5469C162.615 98.5573 162.68 98.5729 162.727 98.5938C162.773 98.6146 162.807 98.6406 162.828 98.6719C162.849 98.7031 162.859 98.737 162.859 98.7734V105.805ZM163.008 96.3984C163.008 96.7005 162.951 96.9062 162.836 97.0156C162.721 97.125 162.51 97.1797 162.203 97.1797C161.901 97.1797 161.693 97.1276 161.578 97.0234C161.469 96.9141 161.414 96.7109 161.414 96.4141C161.414 96.112 161.471 95.9062 161.586 95.7969C161.701 95.6875 161.911 95.6328 162.219 95.6328C162.521 95.6328 162.727 95.6875 162.836 95.7969C162.951 95.901 163.008 96.1016 163.008 96.3984ZM169.656 103.891C169.656 104.25 169.589 104.57 169.453 104.852C169.323 105.133 169.135 105.37 168.891 105.562C168.646 105.755 168.354 105.901 168.016 106C167.677 106.099 167.305 106.148 166.898 106.148C166.648 106.148 166.409 106.128 166.18 106.086C165.956 106.049 165.753 106.003 165.57 105.945C165.393 105.883 165.242 105.82 165.117 105.758C164.992 105.69 164.901 105.63 164.844 105.578C164.786 105.526 164.745 105.453 164.719 105.359C164.693 105.266 164.68 105.138 164.68 104.977C164.68 104.878 164.685 104.794 164.695 104.727C164.706 104.659 164.719 104.604 164.734 104.562C164.75 104.521 164.771 104.492 164.797 104.477C164.828 104.456 164.862 104.445 164.898 104.445C164.956 104.445 165.039 104.482 165.148 104.555C165.263 104.622 165.401 104.698 165.562 104.781C165.729 104.865 165.924 104.943 166.148 105.016C166.372 105.083 166.63 105.117 166.922 105.117C167.141 105.117 167.339 105.094 167.516 105.047C167.693 105 167.846 104.932 167.977 104.844C168.107 104.75 168.206 104.633 168.273 104.492C168.346 104.352 168.383 104.185 168.383 103.992C168.383 103.794 168.331 103.628 168.227 103.492C168.128 103.357 167.995 103.237 167.828 103.133C167.661 103.029 167.474 102.938 167.266 102.859C167.057 102.776 166.841 102.69 166.617 102.602C166.398 102.513 166.182 102.414 165.969 102.305C165.76 102.19 165.573 102.052 165.406 101.891C165.24 101.729 165.104 101.536 165 101.312C164.901 101.089 164.852 100.82 164.852 100.508C164.852 100.232 164.904 99.9688 165.008 99.7188C165.117 99.4635 165.279 99.2422 165.492 99.0547C165.706 98.862 165.971 98.7083 166.289 98.5938C166.612 98.4792 166.987 98.4219 167.414 98.4219C167.602 98.4219 167.789 98.4375 167.977 98.4688C168.164 98.5 168.333 98.5391 168.484 98.5859C168.635 98.6328 168.763 98.6849 168.867 98.7422C168.977 98.7943 169.057 98.8411 169.109 98.8828C169.167 98.9245 169.203 98.9609 169.219 98.9922C169.24 99.0234 169.253 99.0599 169.258 99.1016C169.268 99.138 169.276 99.1849 169.281 99.2422C169.292 99.2995 169.297 99.3698 169.297 99.4531C169.297 99.5417 169.292 99.6198 169.281 99.6875C169.276 99.75 169.263 99.8021 169.242 99.8438C169.227 99.8854 169.206 99.9167 169.18 99.9375C169.154 99.9531 169.125 99.9609 169.094 99.9609C169.047 99.9609 168.979 99.9323 168.891 99.875C168.802 99.8177 168.688 99.7578 168.547 99.6953C168.406 99.6276 168.24 99.5651 168.047 99.5078C167.859 99.4505 167.643 99.4219 167.398 99.4219C167.18 99.4219 166.987 99.4479 166.82 99.5C166.654 99.5469 166.516 99.6172 166.406 99.7109C166.302 99.7995 166.221 99.9062 166.164 100.031C166.112 100.156 166.086 100.292 166.086 100.438C166.086 100.641 166.138 100.812 166.242 100.953C166.346 101.089 166.482 101.208 166.648 101.312C166.815 101.417 167.005 101.51 167.219 101.594C167.432 101.677 167.648 101.763 167.867 101.852C168.091 101.94 168.31 102.039 168.523 102.148C168.742 102.258 168.935 102.391 169.102 102.547C169.268 102.703 169.401 102.891 169.5 103.109C169.604 103.328 169.656 103.589 169.656 103.891Z" fill="#A09DA6"/>
<g clip-path="url(#clip0_2_450)">
<path d="M155.615 69.2978C154.35 68.0718 153.344 66.6046 152.657 64.9831C151.969 63.3616 151.614 61.6187 151.612 59.8575V40.8777C151.612 40.3079 151.612 39.7504 151.612 39.1929C151.355 35.6966 150.3 32.3059 148.526 29.2818C147.837 30.148 147.101 30.9752 146.32 31.7595C144.379 33.7012 142.182 35.3685 139.789 36.7151C140.822 39.4614 140.809 42.4913 139.754 45.229C138.699 47.9668 136.674 50.2216 134.065 51.5651C131.456 52.9086 128.444 53.2471 125.602 52.5164C122.759 51.7857 120.285 50.0366 118.647 47.6015C117.01 45.1664 116.325 42.215 116.722 39.308C117.119 36.401 118.57 33.7409 120.799 31.8333C123.029 29.9256 125.882 28.9033 128.817 28.9605C131.751 29.0177 134.562 30.1505 136.716 32.1436C139.906 30.1911 142.711 27.6719 144.994 24.7103C141.922 21.612 138.035 19.447 133.783 18.466C129.531 17.485 125.087 17.7282 120.968 19.1673C116.848 20.6064 113.221 23.1827 110.505 26.5977C107.79 30.0127 106.097 34.1268 105.624 38.4636C105.151 42.8004 105.917 47.1825 107.832 51.1024C109.747 55.0223 112.734 58.3198 116.446 60.6128C120.159 62.9059 124.445 64.1008 128.808 64.0592C133.172 64.0176 137.435 62.7412 141.103 60.3778V69.4217L155.615 69.2978Z" fill="#2A2C2E"/>
<path d="M87.7396 20.5104L88.5327 21.0184C88.2809 20.8302 88.0159 20.6604 87.7396 20.5104ZM88.5327 61.8521L87.7396 62.36C88.0159 62.21 88.2809 62.0403 88.5327 61.8521ZM87.5165 62.4963L87.6776 62.3848L87.3182 62.583L87.5165 62.4963Z" fill="#2A2C2E"/>
<path d="M56.3611 20.0521C56.3892 20.1199 56.4099 20.1905 56.4231 20.2627H57.1171L57.3154 20.0521H56.3611Z" fill="#2A2C2E"/>
<path d="M87.7396 20.5105C88.0159 20.6605 88.2809 20.8302 88.5327 21.0184L87.7396 20.5105H87.6652H87.5785C86.8425 20.1471 86.0851 19.8285 85.3106 19.5565H85.1495L84.6662 19.4079C82.1922 18.7599 79.6037 18.6794 77.0942 19.1725C73.4696 19.7273 70.1428 21.5017 67.6633 24.2024V20.2627C67.6633 20.1884 67.6633 20.1264 67.6633 20.0521C67.4237 18.064 66.9151 16.1177 66.1514 14.2665C64.4 14.904 62.7348 15.7571 61.1943 16.8062C59.8108 17.7453 58.5349 18.8338 57.3897 20.0521L57.1915 20.2627C56.9064 20.5724 56.6462 20.8821 56.3983 21.1795V72.1968C56.4006 74.6457 55.858 77.0644 54.8099 79.2779C53.7618 81.4913 52.2344 83.444 50.3383 84.9945H67.6881V58.8292C70.1675 61.5299 73.4944 63.3043 77.119 63.8591C79.7788 64.3791 82.5246 64.2516 85.1247 63.4874C85.9193 63.2525 86.6909 62.9457 87.4298 62.5707L87.7892 62.3724L87.6281 62.4839C91.4747 60.4913 94.6875 57.4632 96.9036 53.7416C99.1197 50.02 100.251 45.7532 100.17 41.4229C100.229 37.13 99.1 32.9043 96.9062 29.2134C94.7124 25.5225 91.5398 22.5104 87.7396 20.5105ZM87.7396 62.3601L88.5327 61.8521C88.2809 62.0403 88.0159 62.21 87.7396 62.3601ZM78.7425 53.3905C72.6452 53.3905 67.7005 48.0385 67.7005 41.4476C67.7005 34.8568 72.6576 29.5048 78.7425 29.5048C84.8273 29.5048 89.7844 34.8692 89.7844 41.4476C89.7844 48.0261 84.8273 53.3905 78.7425 53.3905Z" fill="#2A2C2E"/>
<path d="M57.3154 20.0521L57.1171 20.2627C56.8321 20.5724 56.5718 20.8821 56.324 21.1794V20.0521H57.3154Z" fill="#2A2C2E"/>
<path d="M62.9417 8.81529C60.7839 9.67767 58.7794 10.8825 57.0056 12.3833C55.9289 13.2998 54.9413 14.3161 54.0561 15.4186C52.6565 13.6944 50.7999 12.3988 48.6985 11.6799C46.597 10.9609 44.3356 10.8476 42.1728 11.3529C40.01 11.8582 38.0331 12.9618 36.4681 14.5374C34.9031 16.1129 33.8132 18.097 33.323 20.2626V32.0568H46.3974V43.6528H33.3106V62.0007C33.3106 63.5187 32.7074 64.9745 31.6337 66.0479C30.5599 67.1213 29.1037 67.7243 27.5852 67.7243H17.3488C18.8633 66.2465 20.0681 64.4818 20.8931 62.5334C21.7134 60.5713 22.1347 58.4656 22.1324 56.339V43.6528H17.3488V32.0568H22.1324V20.2626C22.6548 15.7493 24.5088 11.4935 27.4583 8.03676C30.4077 4.58005 34.3193 2.07879 38.6951 0.851335C43.071 -0.376122 47.7132 -0.274267 52.031 1.14393C56.3487 2.56214 60.1468 5.23255 62.9417 8.81529Z" fill="#2A2C2E"/>
<path d="M88.5328 21.0556L87.7396 20.5476C88.0159 20.6976 88.281 20.8674 88.5328 21.0556Z" fill="#2A2C2E"/>
<path d="M87.7148 62.3724L87.5537 62.4839L87.3926 62.5583L87.7148 62.3724Z" fill="#2A2C2E"/>
<path d="M88.5328 61.8521C88.281 62.0403 88.0159 62.21 87.7396 62.3601L88.5328 61.8521Z" fill="#2A2C2E"/>
<path d="M57.3154 20.0521L57.1171 20.2627C56.8321 20.5724 56.5718 20.8821 56.324 21.1794V20.0521H57.3154Z" fill="#2A2C2E"/>
</g>
<defs>
<clipPath id="clip0_2_450">
<rect width="195" height="85" fill="white"/>
</clipPath>
</defs>
</svg>
