<svg width="24" height="20" viewBox="0 0 24 20" fill="none" xmlns="http://www.w3.org/2000/svg">
<path d="M1.70711 10.2929C1.31658 9.90237 0.683417 9.90237 0.292893 10.2929C-0.0976311 10.6834 -0.0976311 11.3166 0.292893 11.7071L1.70711 10.2929ZM8.5 18.5L7.79289 19.2071L8.58292 19.9971L9.28087 19.1247L8.5 18.5ZM23.2809 1.6247C23.6259 1.19343 23.556 0.564141 23.1247 0.219131C22.6934 -0.125878 22.0641 -0.055957 21.7191 0.375305L23.2809 1.6247ZM0.292893 11.7071L7.79289 19.2071L9.20711 17.7929L1.70711 10.2929L0.292893 11.7071ZM9.28087 19.1247L23.2809 1.6247L21.7191 0.375305L7.71913 17.8753L9.28087 19.1247Z" fill="#066FD0"/>
</svg>
